<svg width="100" height="90" viewBox="0 0 139 126" fill="none" xmlns="http://www.w3.org/2000/svg">
<path d="M56.5298 29.9032C57.9066 30.7793 59.2271 31.7494 60.679 32.7569C60.6978 32.4002 60.7604 32.2312 60.7103 32.0998C58.3447 26.1044 55.5222 20.4281 50.5093 16.0912C42.1608 8.87538 31.4216 7.66127 22.0405 13.0434C12.4528 18.5507 8.435 27.3373 7.67775 37.9325C7.19586 44.7102 8.34113 51.3127 10.2874 57.7775C10.7756 59.3921 11.1261 61.0881 12.384 62.4211C12.3589 62.1207 12.3276 61.8141 12.3026 61.5074C11.7894 55.3681 12.3151 49.3852 14.6557 43.6025C20.8577 28.2885 40.1331 19.4644 56.5235 29.8969L56.5298 29.9032Z" fill="white"/>
<path d="M130.853 34.3027C129.796 27.2559 127.023 20.9851 121.466 16.3102C114.3 10.2835 106.233 7.79894 97.0774 11.1096C88.8603 14.0822 83.497 20.134 79.8359 27.8442C79.0786 29.44 78.1712 31.0234 77.9521 32.9259C78.2338 32.8633 78.3589 32.8696 78.434 32.8132C78.9347 32.4377 79.4291 32.0435 79.9235 31.6617C84.1541 28.3949 88.8916 26.1857 94.2049 25.5599C109.25 23.7951 123.644 34.7721 126.128 49.6855C126.842 53.9474 126.911 58.2093 126.554 62.6339C127.242 62.2834 127.286 61.8141 127.418 61.4448C130.553 52.652 132.268 43.6526 130.86 34.2964L130.853 34.3027Z" fill="white"/>
<path d="M53.8952 40.4921C52.8063 39.472 51.5984 38.5396 50.2404 37.726C39.1945 31.1173 27.7857 37.3442 23.2234 45.3298C19.6937 51.5067 19.0992 58.2031 20.0755 65.131C20.9892 71.5958 23.0044 77.5661 25.7017 83.2424C25.6767 82.6416 25.6579 82.0408 25.6579 81.4337C25.6579 62.7278 37.3921 46.7629 53.9015 40.4859L53.8952 40.4921Z" fill="white"/>
<path d="M109.788 38.8462C101.759 33.0699 92.1147 33.9085 85.0366 40.4984C94.9497 44.2784 103.142 51.5505 108.098 60.8128C111.384 66.9584 113.255 73.9802 113.255 81.4338C113.255 82.022 113.236 82.6103 113.218 83.1986C113.236 83.1798 113.255 83.1673 113.274 83.1485C113.606 82.4476 113.931 81.7404 114.244 81.027C117.379 73.855 119.52 66.4077 119.244 58.5097C118.975 50.6306 116.491 43.6651 109.788 38.8525V38.8462Z" fill="white"/>
<path d="M90.5125 99.3949C85.4371 105.347 77.8833 109.12 69.4534 109.12C54.903 109.12 42.981 97.8867 41.8607 83.6241C41.8044 82.8981 41.7668 82.1721 41.7668 81.4337C41.7668 68.6543 50.4346 57.9026 62.2064 54.7171C64.5157 54.0913 66.9439 53.7533 69.4534 53.7533C71.963 53.7533 74.3474 54.0913 76.6442 54.7046C82.1264 56.1753 86.939 59.2856 90.5188 63.4787L100.663 57.6209C95.9197 51.4127 89.3673 46.6815 81.801 44.1719C77.9209 42.8827 73.7716 42.1755 69.4597 42.1755C65.1477 42.1755 60.9735 42.889 57.0808 44.1782C41.4665 49.3663 30.1953 64.0795 30.1953 81.4399C30.1953 83.0608 30.308 84.6504 30.4957 86.2212C30.9088 89.6132 31.7536 92.8738 32.974 95.9403C35.3897 102.011 39.2698 107.343 44.1951 111.486C51.0228 117.237 59.8407 120.704 69.466 120.704C79.0912 120.704 87.9153 117.225 94.7494 111.467C96.946 109.615 98.9361 107.537 100.682 105.253L99.8311 104.764L90.5313 99.3949H90.5125Z" fill="white"/>
<path d="M47.7685 81.4336C47.7685 81.7215 47.781 82.0031 47.7872 82.2848C48.2316 93.8626 57.7567 103.119 69.4471 103.119C75.6553 103.119 81.244 100.509 85.1992 96.3283C88.7476 92.5734 90.9693 87.5542 91.1132 82.0157C91.1132 81.8217 91.1258 81.6339 91.1258 81.4399C91.1258 75.6698 88.8665 70.4316 85.1929 66.5452C82.4643 63.6664 78.9597 61.5261 75.0107 60.481C73.2334 60.0116 71.3684 59.755 69.4409 59.755C68.8338 59.755 68.233 59.7863 67.6385 59.8364C67.7449 59.8739 67.8575 59.9115 67.9639 59.9615C68.7524 60.3433 69.1592 60.9941 69.3094 61.839C69.3532 61.839 69.397 61.839 69.4409 61.839C71.1994 61.839 72.9017 62.0768 74.5226 62.5086C77.9083 63.4161 80.9373 65.206 83.3405 67.6216C86.7262 71.0261 88.8665 75.6698 89.0292 80.8141C89.0355 81.0206 89.048 81.2334 89.048 81.4399C89.048 86.8345 86.8701 91.716 83.3467 95.2582C79.7983 98.8316 74.8793 101.041 69.4471 101.041C58.7517 101.041 50.059 92.467 49.8525 81.8217C49.8525 81.6965 49.84 81.5651 49.84 81.4399C49.84 72.8348 55.3848 65.5314 63.095 62.8967C63.095 62.5274 63.1576 62.1519 63.314 61.7889C63.4955 61.3571 63.7396 61.0067 64.0212 60.7125C64.0462 60.6875 64.0713 60.6562 64.0963 60.6312C64.1276 60.5999 64.1651 60.5686 64.2027 60.5373C64.284 60.4684 64.3654 60.3996 64.4468 60.3433C64.3091 60.3746 64.1714 60.4059 64.04 60.4372C54.6776 62.8403 47.7622 71.3328 47.7622 81.4399L47.7685 81.4336Z" fill="white"/>
<path d="M78.928 81.4275C78.6777 81.4588 78.4586 81.3775 78.2771 81.2085C78.1833 81.1209 78.1332 81.0958 78.0518 81.221C77.6701 81.8593 77.3885 82.5227 77.4949 83.28C77.6638 84.5817 78.8529 85.7395 80.1922 85.9147C80.3111 85.9272 80.4175 85.946 80.5051 85.9522C81.1559 86.0273 81.0558 85.9523 81.4751 85.2638C81.5189 85.1887 81.5502 85.1011 81.594 85.026C81.8944 84.4503 82.1635 83.862 82.5328 83.3238C82.877 82.8419 83.2087 82.8169 83.5403 83.2862C83.5842 83.0922 83.6342 82.9295 83.6655 82.7543C83.7281 82.3537 83.7782 81.9532 83.847 81.5589C83.8846 81.3086 83.9659 81.052 84.2162 80.9582C84.4541 80.8643 84.3789 80.7516 84.2913 80.6202C84.235 80.5389 84.1787 80.4575 84.1161 80.3824C83.653 79.8817 83.071 79.5688 82.4201 79.4374C81.7442 79.2997 81.1121 79.3247 80.5113 79.4875C79.8542 79.6627 79.2409 80.0069 78.6714 80.4825C78.565 80.5701 78.5275 80.6953 78.5775 80.8267C78.6339 80.9644 78.7715 80.9707 78.903 80.9582C79.0594 80.9456 79.1846 80.9957 79.1908 81.1709C79.2034 81.3462 79.0657 81.4088 78.9217 81.4213L78.928 81.4275ZM80.2986 82.0533C80.4112 82.0408 80.4801 82.0972 80.5113 82.191C80.5176 82.2098 80.5364 82.2223 80.5426 82.2474C80.5677 82.4414 80.6991 82.5165 80.8743 82.4977C81.0621 82.4789 81.2623 82.4539 81.2436 82.7167C81.2248 82.9671 81.0057 82.9545 80.8618 82.9733C80.7304 82.9733 80.6177 82.9358 80.5176 82.8857C80.2735 82.7793 80.1171 82.5728 80.1108 82.335C80.1108 82.191 80.1421 82.0721 80.2986 82.0533ZM80.5113 83.837C80.5113 83.837 80.5426 83.8182 80.5551 83.8119C80.6866 83.7118 80.818 83.5991 80.9557 83.7806C81.0934 83.9621 80.9745 84.0935 80.8305 84.1999C80.7304 84.2688 80.6177 84.3251 80.5113 84.3752C80.2673 84.4816 80.0044 84.5316 79.7416 84.5379C79.1783 84.5066 78.7027 84.3314 78.3585 83.887C78.2521 83.7493 78.1332 83.5991 78.3022 83.4489C78.4837 83.2925 78.5963 83.4489 78.7027 83.5804C79.1533 84.1311 79.9106 84.2312 80.5051 83.8432L80.5113 83.837Z" fill="white"/>
<path d="M67.5631 73.3794C67.8635 73.3731 68.1702 73.4795 68.4267 73.7423C68.6333 73.9551 68.6958 73.8612 68.796 73.6798C69.184 72.9913 69.6158 72.3405 70.1603 71.7585C70.8299 71.0325 71.5809 70.4192 72.5822 70.2189C72.6323 70.2064 72.6824 70.2064 72.7262 70.2002C74.2594 69.9999 76.0493 71.4017 76.2183 72.9726C76.2496 73.2604 76.2684 73.5483 76.2934 73.8988C76.6126 73.1979 76.719 72.5157 76.719 71.8148C76.7315 70.1751 76.0556 68.8171 74.9228 67.6781C74.4973 67.2463 74.0404 66.8708 73.5648 66.5453C72.2318 65.6191 70.711 65.0746 69.0088 64.9244C67.7133 64.8118 66.5555 65.1622 65.5292 65.8694C65.429 65.9383 65.3226 66.0134 65.2225 66.0885C64.3151 66.7831 63.6892 67.7156 63.2699 68.7795C62.7317 70.1438 62.594 71.5645 62.7505 73.0164C62.9007 74.3619 63.2511 75.6449 64.0209 76.7776C64.3463 77.2532 64.7281 77.6725 65.2976 77.8665C65.4854 77.9291 65.6356 77.8978 65.7795 77.7664C66.1237 77.4535 66.4429 77.1218 66.7433 76.7713C66.906 76.5836 66.9185 76.4772 66.7683 76.2582C66.3302 75.6073 66.1925 74.8939 66.518 74.1366C66.7245 73.6547 67.125 73.3919 67.5506 73.3794H67.5631Z" fill="white"/>
<path d="M64.8721 65.5002C64.0335 65.1059 63.4577 64.4175 63.2262 63.6289C55.8665 66.2011 50.5845 73.1978 50.5845 81.44C50.5845 81.5151 50.5845 81.5839 50.5845 81.659C50.7034 91.9726 59.102 100.302 69.4469 100.302C74.6037 100.302 79.2786 98.2309 82.6831 94.8765C86.1565 91.4532 88.3093 86.6969 88.3093 81.44C88.3093 81.0833 88.2968 80.7328 88.278 80.3761C88.0089 75.5384 85.9187 71.1889 82.6769 67.9972C80.3926 65.7442 77.5388 64.0795 74.3471 63.2221C72.7826 62.8028 71.1366 62.5713 69.4406 62.5713C69.4031 62.5713 69.3655 62.5713 69.3343 62.5713C69.2779 63.1596 69.0589 63.704 68.796 64.2485C68.7773 64.2923 68.7522 64.3361 68.7147 64.4175C69.1653 64.4863 69.6034 64.5051 70.0289 64.5927C71.3745 64.8743 72.6011 65.3562 73.6775 66.0571C74.5849 66.6517 75.386 67.3964 76.0556 68.3477C77.3574 70.1939 77.495 72.184 76.6502 74.268C76.4687 74.7123 76.2496 75.1441 75.9743 75.5384C75.8867 75.6698 75.8429 75.8263 75.7865 75.9702C75.7615 76.0453 75.7302 76.1142 75.6989 76.1893C75.1419 77.6349 74.5036 79.0305 73.4146 80.1695C72.6949 80.9268 71.8751 81.5464 70.9051 81.9531C70.7862 82.0032 70.6673 82.0408 70.5358 82.0032C69.8787 82.3975 69.1841 82.3349 68.4831 82.1659C68.2703 82.1159 68.0638 82.0157 67.8636 81.9031C67.5131 81.6966 67.3003 81.7216 66.9937 82.0157C66.4304 82.5602 66.105 83.2549 65.7983 83.9621C65.5167 84.6004 65.2914 85.2575 65.1725 85.9522C65.1475 86.1086 65.0786 86.1837 64.9222 86.165C64.7469 86.1524 64.7219 86.0273 64.7344 85.8896C64.8033 85.245 65.0286 84.6442 65.2601 84.0559C65.5856 83.2424 65.9548 82.4538 66.5618 81.7904C66.9561 81.3586 67.5506 81.1396 68.1327 81.5088C68.9775 82.0533 69.885 81.8718 70.7674 81.5213C70.8488 81.4963 70.9176 81.4212 71.0115 81.4525C71.9815 80.8892 72.8451 80.2008 73.5336 79.3122C73.8903 78.8616 74.2345 78.3985 74.466 77.8602C74.5474 77.6725 74.5724 77.6162 74.3409 77.5598C73.9028 77.4535 73.5711 77.2094 73.521 76.7087C73.521 76.6837 73.521 76.6587 73.521 76.6336C73.5148 76.4834 73.5336 76.3395 73.715 76.3144C73.8965 76.2894 73.9466 76.4021 73.9654 76.5397C73.9654 76.5648 73.9716 76.5961 73.9716 76.6211C73.9842 77.0216 74.441 77.1656 74.7414 77.1155C74.8353 77.103 74.8728 77.0342 74.9041 76.9591C74.998 76.74 75.0856 76.5147 75.1732 76.2894C75.5112 75.4133 75.7865 74.5246 75.8053 73.5546C75.8366 71.846 74.5224 70.876 73.2394 70.6319C73.0266 70.5881 72.8139 70.6069 72.6136 70.657C72.3132 70.7196 72.0253 70.851 71.7562 71.0074C70.9301 71.4893 70.3168 72.184 69.7786 72.9538C69.5533 73.2729 69.353 73.6171 69.1528 73.9488C68.9963 74.1992 68.8336 74.4432 68.9588 74.7687C69.0088 74.9001 68.9963 75.0816 68.7835 75.1003C68.5833 75.1254 68.552 74.9752 68.5207 74.8187C68.5019 74.7186 68.4706 74.6185 68.4268 74.5308C68.3517 74.3556 68.2453 74.1929 68.1139 74.049C68.02 73.9488 67.9199 73.8925 67.8072 73.8487C67.5381 73.7548 67.2503 73.8362 67.05 74.1115C66.662 74.6372 66.7934 75.7011 67.2878 76.1267C67.4004 76.2206 67.5194 76.2769 67.6633 76.2706C67.826 76.2644 67.9387 76.3207 67.9449 76.4959C67.9512 76.6774 67.7885 76.7525 67.6696 76.7212C67.3879 76.6461 67.2753 76.8339 67.1439 76.9966C66.7621 77.4597 66.3491 77.8665 65.9047 78.2357C64.9785 79.0118 63.9209 79.6 62.7756 80.0632C61.768 80.4762 60.7166 80.7203 59.6903 81.052C58.6514 81.3899 57.6939 81.8718 56.8866 82.629C55.9728 83.4927 55.4722 84.5691 55.1843 85.777C54.8026 87.3916 55.1843 88.8936 55.879 90.3455C56.6049 91.8475 57.625 93.1304 58.8454 94.2694C60.5226 95.8277 62.4564 96.9417 64.6218 97.6551C67.075 98.4562 69.5846 98.6252 72.138 98.2184C74.1907 97.893 76.0744 97.1482 77.8267 96.0468C78.4713 95.6462 79.0533 95.1769 79.6291 94.6887C79.9983 94.3758 80.3426 94.0379 80.6868 93.6937C81.1123 93.2618 81.5191 92.8175 81.9009 92.3481C82.3765 91.7661 82.7895 91.134 83.2026 90.5082C84.1476 89.0688 84.8235 87.5042 85.4743 85.9272C85.7309 85.2951 85.9437 84.6505 85.9813 83.9621C85.9938 83.7993 86.0438 83.549 85.8936 83.5115C85.6996 83.4739 85.6496 83.7368 85.6058 83.8932C85.4681 84.4064 85.3742 84.9258 85.1614 85.4202C85.0425 85.6956 84.9173 85.9522 84.7421 86.1963C84.6545 86.3089 84.5481 86.3778 84.4104 86.2901C84.2602 86.1963 84.2915 86.0648 84.3729 85.9272C85.0425 84.8758 85.2177 83.7055 85.249 82.4914C85.2553 82.2348 85.2365 82.191 85.1176 81.9344C84.9737 82.3161 84.9612 82.6979 84.9111 83.0734C84.7797 84.1185 84.4668 85.0885 83.8159 85.9334C83.7658 86.0022 83.7095 86.0773 83.6407 86.1274C83.528 86.2025 83.3966 86.2213 83.2965 86.1024C83.2026 85.996 83.2401 85.8896 83.3215 85.7832C84.2164 84.5879 84.5481 83.2298 84.4793 81.7591C84.4793 81.6402 84.4605 81.5276 84.3854 81.4087C84.2227 81.659 84.2289 81.9406 84.2039 82.2097C84.0537 83.743 83.3277 85.0197 82.4078 86.2088C82.3139 86.3277 82.2013 86.4466 82.0385 86.3277C81.8758 86.215 81.9384 86.0648 82.0135 85.9334C82.4015 85.2575 82.7395 84.5628 82.9522 83.8119C82.9835 83.718 83.0273 83.6304 82.9835 83.4989C82.7332 83.7368 82.5955 84.0309 82.4641 84.3125C81.9509 85.4265 81.2875 86.4403 80.499 87.3666C80.3613 87.5293 80.2299 87.692 80.086 87.8484C78.2711 89.8073 76.2309 91.4407 73.6525 92.2793C71.9752 92.83 70.2605 92.78 68.552 92.417C65.8734 91.8475 63.489 90.6772 61.4175 88.8811C61.1359 88.637 60.8981 88.3428 60.6415 88.0737C60.5351 87.9611 60.4851 87.8234 60.6102 87.7108C60.7479 87.5793 60.8731 87.6482 60.992 87.7733C63.0197 89.995 65.5918 91.2529 68.4769 91.9351C70.1603 92.3356 71.8501 92.3732 73.5148 91.8475C74.9104 91.4031 76.1495 90.6709 77.3073 89.7885C78.4838 88.8873 79.529 87.8547 80.4552 86.6969C80.4677 86.6781 80.4802 86.6656 80.4928 86.6469C80.5428 86.5843 80.5929 86.5279 80.6054 86.4341C80.5678 86.4278 80.5303 86.4216 80.4928 86.4153C80.3175 86.384 80.1423 86.3527 79.9733 86.3214C79.0533 86.1462 78.3211 85.658 77.7329 84.9446C77.6265 84.8194 77.5138 84.7443 77.3511 84.7068C76.0556 84.3751 75.0543 83.6304 74.3033 82.5289C74.1844 82.3537 74.053 82.1847 73.8778 81.9531C73.8527 82.2598 73.9466 82.4601 74.0154 82.6666C74.0592 82.798 74.1218 82.9357 73.9779 83.0421C73.8277 83.1485 73.7025 83.0546 73.5836 82.9607C73.3333 82.7667 73.0642 82.604 72.7137 82.4851C72.8264 82.8731 73.083 83.1234 73.3083 83.3988C73.4272 83.5365 73.6838 83.6491 73.5273 83.8807C73.3458 84.1373 73.1643 83.8869 72.9891 83.8181C72.7888 83.743 72.6261 83.574 72.3883 83.5803C72.3445 83.6867 72.4071 83.7618 72.4634 83.8431C72.9953 84.6317 73.6963 85.2575 74.4535 85.7957C75.0731 86.2401 75.7552 86.603 76.4937 86.8409C76.6564 86.8909 76.8504 86.9472 76.7753 87.1663C76.7002 87.3853 76.5125 87.329 76.3498 87.2727C74.635 86.6406 73.2144 85.6142 72.1192 84.1435C72.0191 84.0059 71.944 83.8306 71.9064 83.6617C71.8376 83.3675 71.9627 83.1547 72.2631 83.1109C72.4321 83.0859 72.4571 83.0483 72.382 82.8919C72.2569 82.629 72.1317 82.3349 72.4071 82.1096C72.6637 81.8843 72.9453 82.0408 73.2019 82.1659C73.2582 82.191 73.3145 82.2473 73.3896 82.2223C73.4272 82.1784 73.3959 82.1284 73.3896 82.0846C73.3771 81.8405 73.3771 81.5902 73.6525 81.4838C73.9216 81.3836 74.1281 81.5276 74.2845 81.7404C74.4535 81.9719 74.6288 82.1972 74.7915 82.4288C75.3234 83.1985 76.0431 83.7242 76.888 84.0935C76.9568 84.1248 77.0319 84.1498 77.107 84.1748C77.1321 84.1811 77.1634 84.1748 77.2259 84.1748C76.7503 82.942 77.0382 81.8217 77.7454 80.7891C78.4087 79.8191 79.3788 79.2996 80.474 78.993C80.5491 78.9742 80.6179 78.9492 80.693 78.9304C80.6054 78.8052 80.5366 78.6926 80.474 78.5737C80.1485 77.9729 80.1548 77.4785 80.474 76.9027C80.499 76.8589 80.5178 76.8151 80.5491 76.7713C80.6555 76.6023 80.7994 76.4646 80.9621 76.3583C81.5754 75.939 82.4891 75.964 83.0148 76.521C83.2464 76.765 83.3215 77.1781 83.2527 77.5473C83.2214 77.7163 83.1713 77.879 83.0712 78.0104C82.8021 78.3672 82.2075 78.4736 81.782 78.2357C81.4878 78.073 81.3939 77.8039 81.3939 77.491C81.3939 77.3471 81.4565 77.2094 81.6318 77.2094C81.807 77.2094 81.8696 77.3158 81.857 77.4847C81.8445 77.7351 81.9697 77.8853 82.2138 77.9041C82.4453 77.9228 82.6644 77.854 82.7708 77.6099C82.8083 77.516 82.8271 77.4159 82.8333 77.322C82.8459 77.0279 82.6831 76.7525 82.389 76.6148C82.1011 76.4834 81.7757 76.4959 81.4816 76.6148C81.3251 76.6774 81.1686 76.765 81.0435 76.9027C80.6993 77.2657 80.5866 77.8978 80.8182 78.2983C81.056 78.6988 81.4565 78.8303 81.8946 78.8741C82.8584 78.9742 83.7095 79.3184 84.3854 80.0131C84.6983 80.3385 84.9173 80.7203 84.9987 81.1709C85.0237 81.3023 85.055 81.3962 85.224 81.4275C85.5056 81.49 85.5745 81.7466 85.6371 81.9844C85.7122 82.2535 85.6934 82.5352 85.6934 82.8105C85.6934 82.9044 85.6746 82.992 85.8311 83.0108C86.2316 83.0609 86.3818 83.2423 86.4193 83.6429C86.4631 84.1122 86.363 84.5628 86.2316 85.0072C85.7184 86.7407 84.9236 88.3554 84.06 89.9324C83.6344 90.7085 83.1024 91.4157 82.583 92.1354C82.1262 92.7674 81.6067 93.3682 81.0435 93.9252C80.9684 94.0003 80.9058 94.0817 80.8244 94.1505C80.3426 94.5949 79.8857 95.0642 79.3663 95.471C77.3699 97.0544 75.1357 98.1245 72.6198 98.6002C70.1416 99.0633 67.6821 98.9882 65.2539 98.3373C63.4577 97.8554 61.7868 97.0856 60.2598 96.0217C59.3273 95.3709 58.4636 94.6512 57.7001 93.8063C56.3671 92.3544 55.2907 90.746 54.7838 88.8185C54.2143 86.6469 54.6649 84.6505 55.9979 82.8794C56.7864 81.828 57.9067 81.2022 59.127 80.7578C60.2535 80.3448 61.4363 80.1195 62.5503 79.6564C63.3388 79.3247 64.0961 78.9429 64.8033 78.4736C64.8346 78.4548 64.8596 78.436 64.8909 78.4172C65.016 78.3359 65.0849 78.2733 64.8909 78.1857C64.1086 77.8164 63.6205 77.1593 63.2512 76.4271C62.1873 74.3306 61.9432 72.1089 62.4314 69.8246C62.7818 68.185 63.5704 66.7768 64.9222 65.7255C65.1725 65.5314 64.9097 65.5252 64.822 65.4814L64.8721 65.5002ZM70.104 80.1007C70.0289 80.3135 69.8349 80.2822 69.6785 80.2259C69.0652 79.9818 68.6959 79.5249 68.552 78.8866C68.5082 78.6863 68.4769 78.4798 68.5144 78.2733C68.5457 78.1168 68.5833 77.9791 68.7898 77.9979C68.9901 78.023 68.965 78.1732 68.965 78.3108V78.4297C68.9525 79.0681 69.303 79.5938 69.8537 79.7815C70.0101 79.8379 70.1791 79.8879 70.104 80.1007ZM70.2855 74.1366C70.467 74.1053 70.5296 74.2304 70.5546 74.3994C70.5796 74.5371 70.6235 74.656 70.686 74.7561C70.8488 75.019 71.1492 75.1567 71.581 75.1567C71.7312 75.1567 71.8751 75.1629 71.9001 75.3444C71.9252 75.5259 71.7812 75.576 71.6436 75.6073C71.5872 75.6198 71.5309 75.626 71.5059 75.6323C70.9489 75.6323 70.467 75.3194 70.2354 74.8813C70.1729 74.7561 70.1228 74.6247 70.104 74.487C70.079 74.3181 70.104 74.1741 70.2855 74.1428V74.1366ZM72.4446 75.9765C72.4947 75.8388 72.551 75.7011 72.6136 75.5697C72.6699 75.4445 72.77 75.3882 72.9015 75.4446C73.0329 75.5009 73.0704 75.6135 73.0204 75.7387C72.8764 76.0954 72.745 76.4646 72.5948 76.8214C72.4258 77.2156 72.2381 77.5911 71.9815 77.9416C71.7562 78.2483 71.4683 78.4923 70.9802 78.4923C70.686 78.5111 70.4545 78.2858 70.2542 78.0167C70.1729 77.9041 70.1791 77.7851 70.2918 77.7038C70.3982 77.6224 70.4983 77.6349 70.6109 77.7288C71.074 78.1481 71.3056 78.1231 71.6686 77.5974C71.8125 77.3909 71.9314 77.1656 72.0378 76.9403C72.188 76.6274 72.3132 76.3019 72.4446 75.9765Z" fill="white"/>
<path d="M66.5994 60.1556C65.8672 60.143 65.1788 60.3558 64.5968 60.8252C64.4716 60.9253 64.3589 61.038 64.2526 61.1444C63.8333 61.5887 63.5954 62.1144 63.5767 62.7215C63.5767 62.7778 63.5767 62.8341 63.5767 62.8904C63.5767 62.9906 63.5892 63.0969 63.608 63.2033C63.6205 63.2972 63.6455 63.3848 63.6705 63.4724C63.7331 63.704 63.8145 63.9105 63.9271 64.0983C63.9772 64.1796 64.0273 64.2547 64.0836 64.3298C64.3902 64.7178 64.8221 64.9995 65.3603 65.1872C65.3603 65.1872 65.3603 65.1872 65.3665 65.1872C65.548 65.2498 65.6982 65.231 65.8672 65.1371C66.518 64.7867 67.1939 64.5176 67.9449 64.4675C68.1076 64.4612 68.189 64.3736 68.2641 64.2485C68.5082 63.8542 68.6897 63.4286 68.8086 62.978C68.8461 62.8404 68.8649 62.7089 68.8837 62.5713C68.9087 62.3772 68.9087 62.177 68.8837 61.9892C68.8837 61.9392 68.8712 61.8828 68.8586 61.8328C68.6834 60.869 67.9262 60.093 66.5994 60.143V60.1556Z" fill="white"/>
<path d="M138.676 33.6769C137.819 24.1831 134.352 15.8096 127.136 9.42614C116.578 0.101321 104.575 -2.69613 91.2634 2.79864C82.1513 6.5536 75.7679 13.3438 71.2119 21.9677C70.6111 23.1067 70.2919 24.4147 69.2218 25.5224C67.87 22.6624 66.6121 19.89 64.8973 17.3867C56.9305 5.72125 46.2038 -0.900002 31.7222 0.32036C17.1905 1.54698 3.35971 12.9183 0.587301 30.7105C-0.664353 38.7274 0.16174 46.594 2.33336 54.3668C5.60018 66.0635 11.5643 76.3771 18.8802 85.9272C22.1721 90.2329 25.5954 94.426 29.1188 98.5376C33.0677 107.844 40.1458 115.491 49.0263 120.185C49.2829 120.485 49.5645 120.711 49.8899 120.629C55.779 123.577 62.419 125.242 69.4533 125.242C76.4876 125.242 83.0963 123.583 88.9791 120.654C89.2732 120.742 89.486 120.523 89.6926 120.291C97.5091 116.205 103.943 109.834 108.098 102.061C108.724 100.897 109.293 99.6954 109.813 98.4688C109.951 98.3123 110.088 98.1559 110.22 97.9994C117.942 89.1127 125.221 79.9068 130.615 69.3741C136.348 58.1718 139.84 46.4376 138.682 33.6832L138.676 33.6769ZM127.411 61.4511C127.28 61.8204 127.236 62.2835 126.548 62.6402C126.904 58.2094 126.835 53.9537 126.122 49.6919C123.637 34.7784 109.243 23.8014 94.1985 25.5662C88.8852 26.192 84.154 28.4012 79.9171 31.668C79.4227 32.0498 78.9283 32.4441 78.4277 32.8196C78.3526 32.8759 78.2337 32.8696 77.9458 32.9322C78.1648 31.0297 79.0723 29.4526 79.8295 27.8505C83.4906 20.1403 88.8539 14.0886 97.0711 11.1159C106.227 7.79899 114.294 10.2835 121.46 16.3165C127.017 20.9914 129.789 27.2622 130.847 34.309C132.249 43.6651 130.54 52.6645 127.405 61.4574L127.411 61.4511ZM23.2172 45.3298C27.7795 37.3443 39.1946 31.1173 50.2342 37.726C51.5922 38.5396 52.8001 39.4658 53.889 40.4922C37.3797 46.7692 25.6454 62.7278 25.6454 81.4401C25.6454 82.0471 25.6642 82.6479 25.6892 83.2487C22.9919 77.5724 20.9767 71.6021 20.063 65.1373C19.0867 58.2031 19.6813 51.513 23.211 45.3361L23.2172 45.3298ZM12.309 61.52C12.3341 61.8266 12.3591 62.127 12.3904 62.4337C11.1325 61.1007 10.7758 59.3984 10.2939 57.7901C8.34756 51.3253 7.20229 44.7228 7.68418 37.9451C8.44143 27.3498 12.453 18.5632 22.0469 13.0559C31.4281 7.66757 42.1672 8.88167 50.5158 16.1037C55.5286 20.4344 58.3574 26.117 60.7168 32.1124C60.7668 32.2375 60.7042 32.4065 60.6855 32.7695C59.2273 31.7682 57.9131 30.7919 56.5362 29.9157C40.1396 19.4832 20.8641 28.3136 14.6684 43.6213C12.3278 49.404 11.8021 55.3869 12.3153 61.5262L12.309 61.52ZM44.1762 111.486C39.2571 107.343 35.3708 102.017 32.9551 95.9405C31.7347 92.8739 30.8898 89.6134 30.4768 86.2214C30.2891 84.6568 30.1764 83.061 30.1764 81.4401C30.1764 64.0796 41.4475 49.3664 57.0619 44.1783C60.9546 42.8829 65.1163 42.1757 69.4408 42.1757C73.7653 42.1757 77.902 42.8891 81.7821 44.1721C89.3483 46.6816 95.907 51.4191 100.645 57.6211L90.4999 63.4788C86.9201 59.2858 82.1075 56.1754 76.6253 54.7047C74.3347 54.0914 71.9253 53.7535 69.4345 53.7535C66.9437 53.7535 64.4968 54.0914 62.1875 54.7172C50.4156 57.9027 41.7479 68.6544 41.7479 81.4338C41.7479 82.1723 41.7855 82.9045 41.8418 83.6242C42.9621 97.8868 54.8841 109.12 69.4345 109.12C77.8707 109.12 85.4182 105.34 90.4936 99.395L99.7934 104.765L100.645 105.253C98.8985 107.537 96.9083 109.615 94.7117 111.467C87.8839 117.225 79.066 120.704 69.4283 120.704C59.7905 120.704 50.9914 117.237 44.1574 111.486H44.1762ZM91.1132 82.0158C90.9692 87.5544 88.7476 92.5798 85.1991 96.3285C81.2439 100.509 75.6553 103.119 69.447 103.119C57.7566 103.119 48.2315 93.869 47.7872 82.2849C47.7747 82.0033 47.7684 81.7217 47.7684 81.4338C47.7684 71.3204 54.6838 62.828 64.0462 60.431C64.1776 60.3998 64.3153 60.3685 64.4529 60.3372C64.3653 60.3998 64.284 60.4623 64.2089 60.5312C64.1713 60.5625 64.14 60.5938 64.1025 60.6251C64.0775 60.6501 64.0524 60.6814 64.0274 60.7064C63.7395 61.0005 63.4954 61.3573 63.3202 61.7828C63.1637 62.1458 63.1012 62.5213 63.1012 62.8905C55.391 65.5315 49.8461 72.8287 49.8461 81.4338C49.8461 81.5652 49.8524 81.6904 49.8587 81.8155C50.0652 92.4609 58.7517 101.035 69.4533 101.035C74.8855 101.035 79.8045 98.8255 83.3529 95.2521C86.8763 91.7099 89.0542 86.8222 89.0542 81.4338C89.0542 81.221 89.048 81.0145 89.0354 80.808C88.8727 75.6637 86.7324 71.02 83.3467 67.6155C80.9435 65.1998 77.9145 63.41 74.5288 62.5025C72.9079 62.0707 71.2056 61.8329 69.447 61.8329C69.4032 61.8329 69.3594 61.8329 69.3156 61.8329C69.1717 60.988 68.7586 60.3372 67.9701 59.9554C67.8637 59.9053 67.7573 59.8678 67.6447 59.8302C68.2392 59.7802 68.84 59.7489 69.447 59.7489C71.3746 59.7489 73.2396 60.0055 75.0169 60.4748C78.9659 61.52 82.4705 63.6603 85.1991 66.5391C88.8727 70.4255 91.132 75.6637 91.132 81.4338C91.132 81.6278 91.1194 81.8155 91.1194 82.0096L91.1132 82.0158ZM64.5906 60.8316C65.1789 60.3559 65.8611 60.1494 66.5933 60.1619C67.92 60.1181 68.6773 60.8879 68.8525 61.8517C68.865 61.9017 68.8713 61.9518 68.8775 62.0081C68.8963 62.1959 68.8963 62.3899 68.8775 62.5901C68.865 62.7278 68.84 62.8593 68.8024 62.9969C68.6835 63.4413 68.502 63.8668 68.258 64.2674C68.1829 64.3863 68.0953 64.4739 67.9388 64.4864C67.1941 64.5365 66.5119 64.8056 65.8611 65.156C65.6921 65.2499 65.5419 65.2687 65.3604 65.2061C65.3604 65.2061 65.3604 65.2061 65.3541 65.2061C64.8159 65.0184 64.3841 64.7367 64.0775 64.3487C64.0211 64.2736 63.9648 64.1985 63.921 64.1172C63.8083 63.9294 63.7207 63.7229 63.6644 63.4913C63.6394 63.4037 63.6206 63.3161 63.6018 63.2222C63.583 63.1158 63.5768 63.0094 63.5705 62.9093C63.5705 62.853 63.5705 62.7967 63.5705 62.7403C63.583 62.1333 63.8271 61.6076 64.2464 61.1633C64.3528 61.0506 64.4655 60.9442 64.5906 60.8441V60.8316ZM88.3095 81.4401C88.3095 86.697 86.1566 91.4533 82.6833 94.8766C79.2788 98.231 74.6039 100.302 69.447 100.302C59.1021 100.302 50.7035 91.9727 50.5846 81.6591C50.5846 81.584 50.5846 81.5152 50.5846 81.4401C50.5846 73.2042 55.8666 66.2012 63.2263 63.629C63.4579 64.4176 64.0336 65.1122 64.8722 65.5002C64.9599 65.5441 65.2227 65.5503 64.9724 65.7443C63.6206 66.7894 62.8321 68.2038 62.4816 69.8435C61.9935 72.1278 62.2375 74.3494 63.3014 76.446C63.6707 77.1782 64.1588 77.8416 64.9411 78.2045C65.1288 78.2921 65.06 78.3547 64.9411 78.4361C64.9098 78.4549 64.8848 78.4736 64.8535 78.4924C64.1463 78.9618 63.389 79.3498 62.6005 79.6752C61.4865 80.1383 60.3037 80.3636 59.1772 80.7767C57.9569 81.2273 56.8366 81.8531 56.0481 82.8982C54.7151 84.6693 54.2645 86.6657 54.834 88.8373C55.3409 90.7649 56.4173 92.3733 57.7503 93.8252C58.5201 94.6638 59.3837 95.3835 60.31 96.0406C61.837 97.1108 63.5079 97.8805 65.3041 98.3562C67.7385 99.007 70.198 99.0821 72.6701 98.619C75.1796 98.1434 77.4138 97.0732 79.4165 95.4899C79.9296 95.0831 80.3928 94.6075 80.8746 94.1694C80.9497 94.1005 81.0186 94.0192 81.0937 93.9441C81.6632 93.3933 82.1764 92.7926 82.6332 92.1542C83.1527 91.4408 83.6784 90.7273 84.1102 89.9513C84.9801 88.3742 85.7686 86.7596 86.2818 85.026C86.4132 84.5817 86.5134 84.1311 86.4695 83.6617C86.432 83.2612 86.2755 83.0797 85.8813 83.0297C85.7248 83.0109 85.7436 82.9233 85.7436 82.8294C85.7436 82.554 85.7624 82.2787 85.6873 82.0033C85.6247 81.7655 85.5558 81.5026 85.2742 81.4463C85.1115 81.415 85.0739 81.3149 85.0489 81.1897C84.9613 80.7391 84.7485 80.3574 84.4356 80.0319C83.7535 79.331 82.9023 78.9868 81.9448 78.8929C81.513 78.8491 81.1062 78.724 80.8684 78.3172C80.6368 77.9167 80.7495 77.2846 81.0937 76.9216C81.2188 76.7902 81.3753 76.7025 81.5318 76.6337C81.8259 76.5148 82.1513 76.5023 82.4392 76.6337C82.7396 76.7714 82.8961 77.0405 82.8835 77.3409C82.8835 77.4348 82.8585 77.5286 82.821 77.6288C82.7146 77.8728 82.5018 77.9417 82.264 77.9229C82.0199 77.9041 81.8947 77.7539 81.9073 77.5036C81.9198 77.3346 81.8509 77.222 81.682 77.2282C81.5067 77.2282 81.4379 77.3659 81.4442 77.5099C81.4442 77.8228 81.5443 78.0919 81.8322 78.2546C82.2577 78.4924 82.8523 78.386 83.1214 78.0293C83.2152 77.8979 83.2716 77.7414 83.3029 77.5662C83.3717 77.197 83.2966 76.7839 83.065 76.5398C82.5393 75.9828 81.6256 75.9578 81.0123 76.3771C80.8496 76.4898 80.7057 76.6212 80.5993 76.7902C80.568 76.834 80.5492 76.8778 80.5242 76.9216C80.205 77.4974 80.1988 77.9918 80.5242 78.5925C80.5868 78.7052 80.6556 78.8241 80.7432 78.9493C80.6681 78.968 80.5993 78.9931 80.5242 79.0118C79.429 79.3248 78.459 79.8379 77.7956 80.808C77.0884 81.8406 76.8005 82.9608 77.2761 84.1937C77.2136 84.1937 77.1823 84.2 77.1572 84.1937C77.0821 84.1687 77.007 84.1499 76.9382 84.1123C76.0933 83.7431 75.3736 83.2174 74.8417 82.4476C74.679 82.2161 74.5037 81.9908 74.3348 81.7592C74.172 81.5464 73.9718 81.4088 73.7027 81.5026C73.4336 81.6028 73.4273 81.8594 73.4398 82.1034C73.4398 82.1472 73.4774 82.1973 73.4398 82.2411C73.3647 82.2661 73.3084 82.2161 73.2521 82.1848C72.9955 82.0596 72.7139 81.9032 72.4573 82.1285C72.1882 82.36 72.3071 82.6479 72.4322 82.9107C72.5073 83.0609 72.4823 83.1048 72.3133 83.1298C72.0129 83.1736 71.8878 83.3864 71.9566 83.6805C71.9942 83.8558 72.0693 84.0247 72.1694 84.1624C73.2646 85.6331 74.6852 86.6532 76.4 87.2915C76.5627 87.3479 76.7505 87.4104 76.8255 87.1851C76.9006 86.9598 76.7066 86.9098 76.5439 86.8597C75.8055 86.6219 75.1233 86.2589 74.5037 85.8146C73.7465 85.2701 73.0455 84.6443 72.5136 83.862C72.4573 83.7806 72.3947 83.7056 72.4385 83.5992C72.6763 83.5866 72.839 83.7556 73.0393 83.837C73.2145 83.9058 73.396 84.1561 73.5775 83.8996C73.734 83.668 73.4774 83.5616 73.3585 83.4177C73.1332 83.1423 72.8766 82.892 72.7639 82.504C73.1144 82.6229 73.3835 82.7793 73.6338 82.9796C73.7527 83.0735 73.8779 83.1736 74.0281 83.0609C74.172 82.9546 74.1095 82.8169 74.0657 82.6854C73.9968 82.4789 73.9029 82.2787 73.928 81.972C74.0969 82.2098 74.2284 82.3725 74.3535 82.5478C75.1045 83.6492 76.1058 84.394 77.4013 84.7256C77.564 84.7632 77.6767 84.8383 77.7831 84.9635C78.3713 85.6769 79.0973 86.1651 80.0235 86.3403C80.1925 86.3716 80.3677 86.4029 80.543 86.4342C80.5805 86.4404 80.618 86.4467 80.6556 86.4529C80.6431 86.5468 80.593 86.6094 80.543 86.6657C80.5304 86.6845 80.5179 86.697 80.5054 86.7158C79.5792 87.8798 78.5341 88.9124 77.3575 89.8074C76.1997 90.696 74.9543 91.4282 73.565 91.8663C71.9003 92.392 70.2043 92.3545 68.5271 91.9539C65.6483 91.2718 63.0699 90.0139 61.0422 87.7922C60.9295 87.667 60.7981 87.5982 60.6604 87.7296C60.529 87.8423 60.5853 87.9799 60.6917 88.0926C60.9421 88.368 61.1861 88.6558 61.4677 88.8999C63.5392 90.7023 65.9236 91.8663 68.6022 92.4358C70.3107 92.7988 72.0192 92.8489 73.7027 92.2981C76.2811 91.4595 78.3275 89.8199 80.1362 87.8673C80.2801 87.7108 80.4115 87.5481 80.5492 87.3854C81.3378 86.4529 82.0011 85.4454 82.5143 84.3314C82.6457 84.0498 82.7834 83.7494 83.0338 83.5178C83.0776 83.6492 83.0337 83.7368 83.0025 83.8307C82.7897 84.5817 82.4517 85.2764 82.0637 85.9523C81.9886 86.0899 81.926 86.2339 82.0888 86.3465C82.2515 86.4654 82.3579 86.3465 82.458 86.2276C83.378 85.0386 84.1102 83.7619 84.2541 82.2286C84.2791 81.9595 84.2666 81.6779 84.4356 81.4275C84.517 81.5464 84.5295 81.6654 84.5295 81.778C84.5921 83.2487 84.2666 84.6067 83.3717 85.8021C83.2966 85.9085 83.259 86.0148 83.3467 86.1212C83.4531 86.2401 83.5782 86.2214 83.6909 86.1463C83.7597 86.0962 83.8098 86.0211 83.8661 85.9523C84.517 85.1074 84.8236 84.1374 84.9613 83.0922C85.0114 82.723 85.0239 82.3412 85.1678 81.9532C85.2867 82.2098 85.3055 82.2536 85.2992 82.5102C85.268 83.7243 85.0865 84.9009 84.4231 85.946C84.3417 86.0774 84.3167 86.2151 84.4606 86.309C84.5983 86.3904 84.7047 86.3278 84.7923 86.2151C84.9676 85.971 85.099 85.7144 85.2116 85.4391C85.4181 84.9447 85.512 84.4252 85.656 83.9121C85.6998 83.7556 85.7498 83.4928 85.9438 83.5303C86.1003 83.5616 86.044 83.8182 86.0315 83.9809C85.9939 84.6693 85.7811 85.3139 85.5245 85.946C84.8737 87.5294 84.1915 89.0877 83.2528 90.5271C82.8397 91.1529 82.4267 91.785 81.9511 92.367C81.5693 92.8364 81.1625 93.2807 80.737 93.7125C80.399 94.0567 80.0486 94.3884 79.6793 94.7076C79.1098 95.1957 78.5215 95.6651 77.8769 96.0656C76.1246 97.1671 74.2409 97.9118 72.1882 98.2373C69.6348 98.644 67.1252 98.4751 64.672 97.674C62.5066 96.9606 60.5728 95.8466 58.8956 94.2883C57.6752 93.1555 56.6489 91.8726 55.9292 90.3643C55.2345 88.9124 54.8528 87.4104 55.2345 85.7958C55.5161 84.5942 56.0168 83.5115 56.9368 82.6479C57.7441 81.8906 58.7016 81.4088 59.7405 81.0708C60.7668 80.7391 61.8182 80.4951 62.8258 80.082C63.9711 79.6189 65.0225 79.0244 65.9549 78.2546C66.3993 77.8854 66.8186 77.4786 67.1941 77.0155C67.3255 76.859 67.4381 76.665 67.7198 76.7401C67.8449 76.7776 68.0076 76.7026 67.9951 76.5148C67.9951 76.3396 67.87 76.2832 67.7135 76.2895C67.5696 76.2895 67.4507 76.2394 67.338 76.1456C66.8436 75.7263 66.7122 74.6561 67.1002 74.1304C67.3005 73.855 67.5883 73.7737 67.8574 73.8676C67.9638 73.9051 68.0702 73.9677 68.1641 74.0678C68.2955 74.2118 68.4019 74.3745 68.477 74.5497C68.5146 74.6436 68.5521 74.7374 68.5709 74.8376C68.6022 74.994 68.6335 75.1442 68.8337 75.1192C69.0403 75.1004 69.059 74.9189 69.009 74.7875C68.8838 74.4621 69.0465 74.218 69.203 73.9677C69.4095 73.636 69.6098 73.2918 69.8288 72.9726C70.367 72.2029 70.9803 71.5019 71.8064 71.0263C72.0818 70.8698 72.3697 70.7384 72.6638 70.6758C72.8703 70.632 73.0768 70.6133 73.2896 70.6508C74.5726 70.8949 75.8868 71.8649 75.8555 73.5734C75.8367 74.5372 75.5614 75.4321 75.2234 76.3083C75.1358 76.5336 75.0482 76.7526 74.9543 76.9779C74.923 77.053 74.8855 77.1156 74.7916 77.1344C74.4912 77.1844 74.0344 77.0405 74.0218 76.64C74.0218 76.6087 74.0218 76.5836 74.0156 76.5586C74.0031 76.4209 73.9467 76.302 73.7653 76.3333C73.5838 76.3583 73.565 76.5023 73.5713 76.6525C73.5713 76.6775 73.5713 76.7025 73.5713 76.7276C73.6213 77.2282 73.953 77.4661 74.3911 77.5787C74.6226 77.635 74.5976 77.6914 74.5162 77.8791C74.2847 78.4173 73.9405 78.8804 73.5838 79.331C72.8953 80.2197 72.0317 80.9081 71.0617 81.4713C70.9615 81.44 70.899 81.5089 70.8176 81.5402C69.9352 81.8906 69.0215 82.0721 68.1829 81.5277C67.6009 81.1584 67.0126 81.3775 66.612 81.8093C66.005 82.4664 65.6358 83.255 65.3103 84.0748C65.0725 84.6631 64.8472 85.2639 64.7846 85.9085C64.7721 86.0461 64.7971 86.1713 64.9724 86.1838C65.1288 86.2026 65.1977 86.1275 65.2227 85.971C65.3416 85.2826 65.5732 84.6193 65.8485 83.9809C66.1552 83.2737 66.4744 82.5791 67.0439 82.0346C67.3505 81.7405 67.557 81.7154 67.9138 81.9219C68.114 82.0346 68.3206 82.1347 68.5333 82.1848C69.2343 82.3538 69.9289 82.4163 70.5861 82.0221C70.7175 82.0659 70.8364 82.0221 70.9553 81.972C71.9253 81.5652 72.7452 80.9394 73.4649 80.1884C74.5538 79.0431 75.1921 77.6475 75.7491 76.2081C75.7742 76.133 75.8055 76.0642 75.8367 75.9891C75.8931 75.8452 75.9369 75.6887 76.0245 75.5573C76.2936 75.1568 76.5189 74.7312 76.7004 74.2868C77.5515 72.2091 77.4076 70.2127 76.1059 68.3665C75.4362 67.4153 74.6289 66.6643 73.7277 66.076C72.6513 65.3688 71.4247 64.8869 70.0791 64.6116C69.6536 64.5239 69.2155 64.5114 68.7649 64.4363C68.8024 64.355 68.8275 64.3112 68.8463 64.2674C69.1091 63.7292 69.3281 63.1784 69.3845 62.5901C69.422 62.5901 69.4596 62.5901 69.4909 62.5901C71.1868 62.5901 72.8328 62.8154 74.3973 63.241C77.5891 64.0984 80.4428 65.7693 82.7271 68.0161C85.9689 71.2078 88.0591 75.5573 88.3282 80.3949C88.347 80.7454 88.3595 81.1021 88.3595 81.4588L88.3095 81.4401ZM68.4269 73.7486C68.1704 73.4858 67.8637 73.3731 67.5633 73.3857C67.1377 73.3982 66.7372 73.661 66.5307 74.1429C66.2115 74.9002 66.3429 75.6136 66.781 76.2645C66.9312 76.4835 66.9187 76.5899 66.756 76.7776C66.4493 77.1219 66.1364 77.4598 65.7922 77.7727C65.642 77.9041 65.4981 77.9354 65.3103 77.8728C64.7408 77.6726 64.3591 77.2595 64.0336 76.7839C63.2639 75.6512 62.9072 74.3682 62.7632 73.0227C62.6068 71.5708 62.7444 70.1564 63.2826 68.7858C63.702 67.7219 64.3278 66.7895 65.2352 66.0948C65.3354 66.0197 65.4417 65.9446 65.5419 65.8757C66.5682 65.1686 67.726 64.8181 69.0215 64.9307C70.7237 65.0809 72.2445 65.6254 73.5775 66.5516C74.0531 66.8833 74.5037 67.2588 74.9355 67.6844C76.062 68.8171 76.7442 70.1814 76.7317 71.8211C76.7317 72.522 76.619 73.2042 76.3061 73.9051C76.2811 73.5546 76.2623 73.2668 76.231 72.9789C76.062 71.4081 74.2722 70.0062 72.7389 70.2065C72.6888 70.2127 72.6388 70.219 72.595 70.2252C71.5936 70.4255 70.8426 71.0388 70.173 71.7648C69.6348 72.3468 69.1967 72.9977 68.8087 73.6861C68.7086 73.8675 68.646 73.9614 68.4395 73.7486H68.4269ZM78.9033 80.9707C78.7719 80.9832 78.6342 80.9707 78.5779 80.8393C78.5215 80.7078 78.5591 80.5827 78.6717 80.495C79.2412 80.0194 79.8545 79.6815 80.5117 79.5C81.1125 79.3373 81.7445 79.3122 82.4204 79.4499C83.0776 79.5814 83.6596 79.8943 84.1164 80.3949C84.1853 80.47 84.2416 80.5451 84.2917 80.6327C84.3793 80.7704 84.4544 80.8768 84.2166 80.9707C83.9662 81.0646 83.8849 81.3211 83.8473 81.5715C83.7785 81.9657 83.7284 82.3663 83.6658 82.7668C83.6345 82.942 83.5845 83.1048 83.5407 83.2988C83.209 82.8357 82.8773 82.8544 82.5331 83.3363C82.1576 83.8745 81.8947 84.4628 81.5943 85.0386C81.5505 85.1199 81.5255 85.2013 81.4754 85.2764C81.0561 85.9648 81.1563 86.0399 80.5054 85.9648C80.4178 85.9523 80.3114 85.9398 80.1925 85.9272C78.8532 85.752 77.6579 84.5942 77.4952 83.2925C77.395 82.5352 77.6704 81.8656 78.0522 81.2335C78.1273 81.1084 78.1836 81.1334 78.2775 81.221C78.4589 81.39 78.678 81.4713 78.9283 81.4401C79.0723 81.4213 79.2037 81.365 79.1974 81.1897C79.1849 81.0145 79.066 80.9582 78.9096 80.9769L78.9033 80.9707ZM113.205 83.2925C113.205 83.2925 113.205 83.2362 113.205 83.2112C113.23 82.6229 113.242 82.0408 113.242 81.4463C113.242 73.9865 111.371 66.9709 108.086 60.8253C103.129 51.5631 94.937 44.291 85.0239 40.511C92.102 33.921 101.746 33.0887 109.775 38.8588C116.472 43.6777 118.962 50.6369 119.232 58.516C119.501 66.4202 117.367 73.8675 114.231 81.0333C113.918 81.7467 113.593 82.4539 113.261 83.1548C113.242 83.1986 113.217 83.2424 113.199 83.2862L113.205 83.2925Z" fill="#1089A7"/>
<path d="M70.605 77.7289C70.4986 77.635 70.3922 77.6225 70.2858 77.7038C70.1732 77.7914 70.1669 77.9104 70.2483 78.0167C70.4423 78.2858 70.6738 78.5111 70.9742 78.4924C71.4624 78.4924 71.7502 78.2546 71.9755 77.9416C72.2321 77.5974 72.4261 77.2157 72.5889 76.8214C72.7391 76.4647 72.8705 76.1017 73.0144 75.7387C73.0645 75.6136 73.0269 75.5009 72.8955 75.4446C72.7641 75.3883 72.664 75.4446 72.6076 75.5698C72.545 75.7012 72.495 75.8389 72.4387 75.9765C72.3135 76.302 72.1821 76.6274 72.0319 76.9403C71.9255 77.1656 71.8066 77.3909 71.6626 77.5974C71.2934 78.1231 71.0681 78.1482 70.605 77.7289Z" fill="#1089A7"/>
<path d="M69.6788 80.2259C69.8353 80.2885 70.023 80.3135 70.1044 80.1007C70.1795 79.8879 70.0105 79.8379 69.8541 79.7816C69.2971 79.5938 68.9466 79.0744 68.9654 78.4298V78.3109C68.9654 78.1732 68.9967 78.023 68.7902 77.9979C68.5836 77.9729 68.5461 78.1106 68.5148 78.2733C68.4773 78.4798 68.5085 78.6864 68.5523 78.8866C68.6963 79.525 69.0655 79.9818 69.6788 80.2259Z" fill="#1089A7"/>
<path d="M70.2294 74.8814C70.461 75.3195 70.9491 75.6324 71.4999 75.6324C71.5249 75.6324 71.5875 75.6199 71.6375 75.6073C71.7752 75.5698 71.9192 75.526 71.8941 75.3445C71.8691 75.163 71.7252 75.1567 71.575 75.1567C71.1431 75.1567 70.8427 75.0253 70.68 74.7562C70.6174 74.6561 70.5736 74.5434 70.5486 74.3995C70.5173 74.2305 70.461 74.1054 70.2795 74.1366C70.098 74.1679 70.073 74.3119 70.098 74.4809C70.1168 74.6185 70.1668 74.7562 70.2294 74.8751V74.8814Z" fill="#1089A7"/>
<path d="M78.7092 83.5803C78.5966 83.4489 78.4902 83.2924 78.3087 83.4489C78.1397 83.5991 78.2586 83.7493 78.365 83.887C78.7092 84.325 79.1849 84.5065 79.7481 84.5378C80.011 84.5378 80.2675 84.4815 80.5179 84.3751C80.6243 84.325 80.7369 84.275 80.837 84.1999C80.981 84.0997 81.0999 83.9621 80.9622 83.7806C80.8308 83.5991 80.6931 83.7117 80.5617 83.8119C80.5492 83.8244 80.5304 83.8306 80.5179 83.8369C79.9233 84.2312 79.1661 84.1248 78.7155 83.574L78.7092 83.5803Z" fill="#1089A7"/>
<path d="M80.5115 82.8857C80.6117 82.9295 80.7306 82.9671 80.8557 82.9733C80.9997 82.9546 81.225 82.9733 81.2375 82.7168C81.2563 82.4476 81.056 82.4789 80.8682 82.4977C80.693 82.5165 80.5616 82.4414 80.5366 82.2474C80.5366 82.2224 80.5178 82.2098 80.5053 82.1911C80.4677 82.0972 80.3989 82.0471 80.2925 82.0534C80.1298 82.0722 80.0985 82.1911 80.1047 82.335C80.1047 82.5728 80.2675 82.7731 80.5115 82.8857Z" fill="#1089A7"/>
</svg>
